<svg xmlns="http://www.w3.org/2000/svg" width="1080" height="1920"><defs><linearGradient id="b" x2="1" y2="1"><stop stop-color="#020812"/><stop offset=".58" stop-color="#061d2e"/><stop offset="1" stop-color="#020812"/></linearGradient><linearGradient id="g"><stop stop-color="#ffe18a"/><stop offset=".55" stop-color="#e6ac3b"/><stop offset="1" stop-color="#995c14"/></linearGradient><linearGradient id="c"><stop stop-color="#38e5e3"/><stop offset="1" stop-color="#08abc4"/></linearGradient></defs><rect width="1080" height="1920" fill="url(#b)"/><circle cx="1060" cy="1110" r="360" fill="none" stroke="#dfa632" stroke-width="3"/><circle cx="1060" cy="1110" r="305" fill="none" stroke="#22cbd0" stroke-width="2" opacity=".38"/><rect x="108" y="62" width="150" height="150" rx="34" fill="#061725" stroke="#e8b443" stroke-width="5"/><image href="../icon.svg" x="126" y="80" width="114" height="114"/><text x="292" y="145" fill="url(#g)" font-family="Georgia,serif" font-size="82" font-weight="700">WoW</text><text x="292" y="210" fill="url(#g)" font-family="Georgia,serif" font-size="68" font-weight="700">Proof Reader</text><path d="M330 265h420" stroke="#27d9dc" stroke-width="2"/><rect x="533" y="257" width="16" height="16" transform="rotate(45 541 265)" fill="#31e7e7"/><text x="540" y="372" text-anchor="middle" fill="url(#c)" font-family="Arial" font-size="77" font-weight="800">Read · Edit · Perfect</text><text x="540" y="435" text-anchor="middle" fill="#f6f7f8" font-family="Noto Sans Myanmar,Pyidaungsu,Arial" font-size="35">ဖတ်မယ် · ပြင်မယ် · ပြီးစီး</text><g transform="translate(205 485)"><rect width="670" height="1270" rx="86" fill="#03080d" stroke="#9de4e9" stroke-width="5"/><rect x="24" y="26" width="622" height="1218" rx="62" fill="#faf9f5"/><text x="62" y="92" fill="#25282a" font-family="Arial" font-size="28">1:40</text><text x="505" y="92" fill="#25282a" font-family="Arial" font-size="22">Wi‑Fi ▮▮</text><image href="../icon.svg" x="65" y="130" width="68" height="68"/><text x="150" y="165" fill="#222" font-family="Arial" font-size="32" font-weight="700">WoW Proof Reader</text><text x="150" y="202" fill="#707275" font-family="Arial" font-size="19">Read · Edit · Perfect</text><rect x="520" y="128" width="72" height="72" rx="20" fill="#fff" stroke="#d8d8d4"/><text x="556" y="174" text-anchor="middle" fill="#444" font-size="30">⇅</text><rect x="55" y="240" width="380" height="82" rx="24" fill="#fff" stroke="#d8d8d4"/><text x="85" y="291" fill="#8a8c8e" font-family="Arial" font-size="27">Search books</text><rect x="455" y="240" width="137" height="82" rx="24" fill="#f0f0ec"/><text x="523" y="293" text-anchor="middle" fill="#168c70" font-size="36">☰</text><g font-family="Arial" font-size="20" text-anchor="middle"><rect x="55" y="350" width="128" height="64" rx="18" fill="#e4f4ee" stroke="#89cbb8"/><text x="119" y="391" fill="#168c70" font-weight="700">Active</text><rect x="190" y="350" width="128" height="64" rx="18" fill="#fff" stroke="#d7d7d3"/><text x="254" y="391" fill="#777">Favorites</text><rect x="325" y="350" width="128" height="64" rx="18" fill="#fff" stroke="#d7d7d3"/><text x="389" y="391" fill="#777">Archive</text><rect x="460" y="350" width="128" height="64" rx="18" fill="#fff" stroke="#d7d7d3"/><text x="524" y="391" fill="#777">Trash</text></g><text x="60" y="472" fill="#626568" font-family="Arial" font-size="21" font-weight="700">YOUR LIBRARY</text><text x="545" y="472" fill="#777" font-family="Arial" font-size="20">1 book</text><rect x="55" y="505" width="535" height="174" rx="30" fill="#fff" stroke="#d8d8d4" stroke-width="2"/><rect x="75" y="528" width="115" height="120" rx="24" fill="#3f7890"/><text x="132" y="598" text-anchor="middle" fill="#fff" font-family="Arial" font-size="25" font-weight="700">DOCX</text><text x="215" y="565" fill="#222" font-family="Noto Sans Myanmar,Pyidaungsu,sans-serif" font-size="27">သန်းမိုး_ပုလဲကကြိုး</text><text x="215" y="610" fill="#74777a" font-family="Arial" font-size="21">8% read · 7 edits</text><rect x="215" y="635" width="330" height="7" rx="4" fill="#ecece9"/><rect x="215" y="635" width="50" height="7" rx="4" fill="#16946e"/><rect x="60" y="1080" width="550" height="92" rx="26" fill="#138c68"/><text x="335" y="1137" text-anchor="middle" fill="#fff" font-family="Arial" font-size="28" font-weight="700">＋  Add DOCX</text></g><g transform="translate(42 1420)" stroke="#e6ae3c" stroke-width="5" fill="none"><path d="M15 10h112l42 42v118H15zM128 10v44h41M45 62h70M45 90h70M45 118h55"/><path d="M128 120l38-38 18 18-38 38z"/></g><ellipse cx="540" cy="1785" rx="470" ry="70" fill="#03090e" stroke="#d59a2c" stroke-width="3"/></svg>